<?xml version="1.0" encoding="UTF-8"?>
<svg xmlns="http://www.w3.org/2000/svg" version="1.2" viewBox="0 0 89 33" width="89" height="33">
  <title>car-svg</title>
  <defs>
    <clipPath id="cp1">
      <path d="m0-28h89v89h-89z"></path>
    </clipPath>
  </defs>
  <style>
		.s0 { fill: #BFA37C } 
	</style>
  <g id="Clip-Path" clip-path="url(#cp1)">
    <g id="Layer">
      <path id="Layer" fill-rule="evenodd" class="s0" d="m72.5 32.7c-5.1 0-9.3-4.2-9.3-9.4 0-5.1 4.2-9.3 9.3-9.3 5.2 0 9.4 4.2 9.4 9.3 0 5.2-4.2 9.4-9.4 9.4zm0-17c-4.2 0-7.6 3.4-7.6 7.6 0 4.2 3.4 7.6 7.6 7.6 4.2 0 7.6-3.4 7.6-7.6 0-4.2-3.4-7.6-7.6-7.6z"></path>
      <path id="Layer" fill-rule="evenodd" class="s0" d="m16.2 32.7c-5.2 0-9.4-4.2-9.4-9.4 0-5.1 4.2-9.3 9.4-9.3 5.1 0 9.3 4.2 9.3 9.3 0 5.2-4.2 9.4-9.3 9.4zm0-17c-4.2 0-7.6 3.4-7.6 7.6 0 4.2 3.4 7.6 7.6 7.6 4.2 0 7.6-3.4 7.6-7.6 0-4.2-3.4-7.6-7.6-7.6z"></path>
      <path id="Layer" fill-rule="evenodd" class="s0" d="m16.2 28.4c-2.8 0-5-2.3-5-5.1 0-2.7 2.2-5 5-5 2.7 0 5 2.3 5 5 0 2.8-2.3 5.1-5 5.1zm0-8.4c-1.8 0-3.3 1.5-3.3 3.3 0 1.8 1.5 3.3 3.3 3.3 1.8 0 3.3-1.5 3.3-3.3 0-1.8-1.5-3.3-3.3-3.3z"></path>
      <path id="Layer" fill-rule="evenodd" class="s0" d="m72.5 28.4c-2.8 0-5-2.3-5-5.1 0-2.7 2.2-5 5-5 2.8 0 5 2.3 5 5 0 2.8-2.2 5.1-5 5.1zm0-8.4c-1.8 0-3.3 1.5-3.3 3.3 0 1.8 1.5 3.3 3.3 3.3 1.8 0 3.3-1.5 3.3-3.3 0-1.8-1.5-3.3-3.3-3.3z"></path>
      <path id="Layer" class="s0" d="m86 28.3h-6.1v-1.7h5.3v-3.3q0-0.2 0-0.3l1.9-4.2-3.5-2.5c-3.8-2.9-8.6-4.5-13.3-4.5h-7.4q-0.2 0-0.5-0.1l-7.7-5.3c-4.2-2.8-9.1-4.3-14.1-4.3h-18.2l-20.7 6.3v0.8h1.1c0.5 0 0.9 0.4 0.9 0.9v7.4c0 0.5-0.4 0.9-0.9 0.9h-1.1v4.8l2.6 3.4h4.5v1.7h-4.9q-0.4 0-0.7-0.3l-3-4q-0.2-0.3-0.2-0.5v-6c0-0.4 0.4-0.8 0.9-0.8h1v-5.8h-1c-0.5 0-0.9-0.3-0.9-0.8v-2.4c0-0.4 0.2-0.7 0.6-0.8l21.4-6.5q0.1-0.1 0.2-0.1h18.4c5.4 0 10.6 1.7 15.1 4.7l7.5 5.1h7.1c5.1 0 10.2 1.7 14.3 4.8l4.1 3c0.3 0.2 0.4 0.7 0.2 1l-2 4.6v4c0 0.4-0.4 0.8-0.9 0.8z"></path>
      <path id="Layer" class="s0" d="m52.7 26.6h12.5v1.7h-12.5z"></path>
      <path id="Layer" class="s0" d="m23.6 26.6h25.6v1.7h-25.6z"></path>
      <path id="Layer" fill-rule="evenodd" class="s0" d="m6.6 18.4h-3.8c-0.5 0-0.9-0.4-0.9-0.9v-7.4c0-0.5 0.4-0.9 0.9-0.9h3.8c0.3 0 0.6 0.2 0.8 0.5l1.8 4.3c0.1 0.2 0.1 0.5 0 0.7l-1.9 3.3c-0.1 0.2-0.4 0.4-0.7 0.4zm-2.9-1.7h2.3l1.4-2.4-1.4-3.4h-2.3z"></path>
      <path id="Layer" class="s0" d="m57.5 11.5h-13q-0.1 0-0.1-0.1l-17.5-2.7 0.3-1.7 17.4 2.7h10.2l-0.7-0.5c-4.3-3.1-9.4-4.7-14.7-4.7h-15.5l-4.5 1.3 4.3 0.7-0.3 1.7-8.1-1.2c-0.4-0.1-0.8-0.4-0.8-0.8 0-0.4 0.3-0.8 0.7-0.9l8.4-2.5q0.1 0 0.2 0h15.6c5.7 0 11.1 1.7 15.7 5l3 2.1c0.3 0.2 0.4 0.6 0.3 1-0.2 0.3-0.5 0.6-0.9 0.6z"></path>
      <path id="Layer" fill-rule="evenodd" class="s0" d="m33.9 9.8q0 0-0.1 0l-3.6-0.5c-0.4-0.1-0.7-0.4-0.7-0.9v-4.8c0-0.5 0.4-0.8 0.9-0.8h3.5c0.5 0 0.9 0.3 0.9 0.8v5.4q0 0.4-0.3 0.6-0.2 0.2-0.6 0.2zm-2.6-2.1l1.8 0.2v-3.4h-1.8z"></path>
      <path id="Layer" class="s0" d="m61.9 24.2l-28.2-1.7q-0.4 0-0.7-0.3l-5.3-6.8c-0.2-0.2-0.3-0.5-0.2-0.8q0.1-0.4 0.5-0.6l5.6-2.5q0.2-0.1 0.5 0l27.5 4.1-0.2 1.8-27.3-4.2-4.4 2 4.5 5.6 27.8 1.6z"></path>
      <path id="Layer" class="s0" d="m82.7 17.7h5.4v1.8h-5.4z"></path>
    </g>
  </g>
</svg>
