<svg width="74" height="74" viewBox="0 0 74 74" fill="none" xmlns="http://www.w3.org/2000/svg">
<g clip-path="url(#clip0_199_1874)">
<path d="M32.4794 48.1765C32.6363 48.2774 32.8157 48.3334 33.0063 48.3334C33.1857 48.3334 33.3651 48.2774 33.5221 48.1765L40.5409 43.6131C41.3033 43.6692 42.0769 43.7028 42.8506 43.7028C53.7936 43.7028 62.6848 37.4689 62.6848 29.7998C62.6848 22.1419 53.7824 15.9192 42.8506 15.9192C31.9076 15.9192 23.0051 22.1531 23.0051 29.7998C23.0051 34.8452 26.8172 39.431 33.0176 41.8865L32.0757 47.201C31.9972 47.5934 32.1542 47.9634 32.4794 48.1765ZM24.9 29.811C24.9 23.1959 32.9503 17.8252 42.8506 17.8252C52.7397 17.8252 60.79 23.2071 60.79 29.811C60.79 36.4262 52.7397 41.8192 42.8506 41.8192C42.0097 41.8192 41.18 41.7856 40.3839 41.7071C40.1709 41.6846 39.9579 41.7407 39.7785 41.8528L34.3069 45.4071L35.0133 41.4716C35.0918 41.0119 34.8339 40.5746 34.3966 40.4177C28.5327 38.2986 24.9 34.2398 24.9 29.811Z" fill="#BFA37C"/>
<path d="M53.0871 33.3316C55.0044 33.3316 56.5628 31.7732 56.5628 29.8559C56.5628 27.9386 55.0044 26.3801 53.0871 26.3801C51.1698 26.3801 49.6113 27.9386 49.6113 29.8559C49.6113 31.7732 51.1698 33.3316 53.0871 33.3316ZM53.0871 28.275C53.9616 28.275 54.668 28.9813 54.668 29.8559C54.668 30.7304 53.9616 31.4368 53.0871 31.4368C52.2125 31.4368 51.5062 30.7304 51.5062 29.8559C51.5062 28.9813 52.2125 28.275 53.0871 28.275Z" fill="#BFA37C"/>
<path d="M42.8393 33.3316C44.7566 33.3316 46.315 31.7732 46.315 29.8559C46.315 27.9386 44.7566 26.3801 42.8393 26.3801C40.922 26.3801 39.3635 27.9386 39.3635 29.8559C39.3747 31.7732 40.9332 33.3316 42.8393 33.3316ZM42.8393 28.275C43.7138 28.275 44.4202 28.9813 44.4202 29.8559C44.4202 30.7304 43.7138 31.4368 42.8393 31.4368C41.9647 31.4368 41.2584 30.7304 41.2584 29.8559C41.2584 28.9813 41.9759 28.275 42.8393 28.275Z" fill="#BFA37C"/>
<path d="M36.0785 29.8559C36.0785 27.9386 34.52 26.3801 32.6027 26.3801C30.6854 26.3801 29.127 27.9386 29.127 29.8559C29.127 31.7732 30.6854 33.3316 32.6027 33.3316C34.52 33.3316 36.0785 31.7732 36.0785 29.8559ZM32.6027 31.4368C31.7282 31.4368 31.0218 30.7304 31.0218 29.8559C31.0218 28.9813 31.7282 28.275 32.6027 28.275C33.4773 28.275 34.1836 28.9813 34.1836 29.8559C34.1836 30.7192 33.4773 31.4368 32.6027 31.4368Z" fill="#BFA37C"/>
<path d="M40.8661 2.68896C26.0548 2.68896 13.1497 12.1856 8.76575 26.3129C8.60878 26.8174 8.88908 27.3444 9.39363 27.5014C9.89817 27.6584 10.4251 27.3781 10.5821 26.8735C14.7194 13.5423 26.8845 4.58381 40.8661 4.58381C58.357 4.58381 72.5739 18.812 72.5739 36.2917C72.5739 50.0041 63.8397 62.102 50.8336 66.4075C50.3403 66.5756 50.0712 67.1138 50.2282 67.6071C50.3627 68.0108 50.7327 68.2574 51.1251 68.2574C51.2261 68.2574 51.327 68.2462 51.4167 68.2126C65.2076 63.6493 74.4688 50.8226 74.4688 36.2917C74.4688 17.7693 59.3885 2.68896 40.8661 2.68896Z" fill="#BFA37C"/>
<path d="M42.1778 57.2247C40.8435 55.8904 38.5226 55.8904 37.1884 57.2247L35.4505 58.9625L34.6993 59.7138C33.9032 60.5098 32.6362 60.6556 31.7056 60.0501C26.0099 56.3838 21.1214 51.4728 17.1523 45.4631C16.5244 44.5101 16.659 43.2319 17.4662 42.4247L18.1838 41.7071L19.9217 39.9804C21.3008 38.6013 21.3008 36.3701 19.9217 34.991L14.652 29.7213C13.2729 28.3422 11.0417 28.3422 9.6626 29.7213L8.44048 30.9435C8.30594 31.078 8.19382 31.2125 8.07048 31.3471L7.92473 31.5041C2.62139 37.3456 2.54291 46.248 7.74533 52.2241C13.0487 58.3235 18.8453 64.1201 24.9447 69.4235C27.8935 71.991 31.5599 73.2692 35.215 73.2692C38.9599 73.2692 42.7047 71.9238 45.6647 69.2441L45.8217 69.0983C45.9562 68.975 46.0908 68.8628 46.2253 68.7283L47.4475 67.5062C48.109 66.8447 48.479 65.9589 48.479 65.0059C48.479 64.0528 48.109 63.1783 47.4475 62.5056L42.1778 57.2247ZM13.3178 31.0444L18.5875 36.3141C19.2265 36.9531 19.2265 37.9847 18.5875 38.6238L17.5223 39.6889L9.94291 32.1095L11.0081 31.0444C11.6247 30.4277 12.7011 30.4277 13.3178 31.0444ZM26.1893 67.9883C20.1459 62.7298 14.4278 57.0116 9.16927 50.9683C4.83018 45.9789 4.68442 38.6462 8.68715 33.5335L16.1881 41.0344L16.1432 41.0792C14.6968 42.5256 14.4614 44.8016 15.5826 46.5059C19.6862 52.7398 24.7765 57.8301 30.6853 61.6422C32.3672 62.7298 34.6208 62.4719 36.0559 61.048L36.1344 60.9695L43.6353 68.4704C38.5114 72.4844 31.1787 72.3274 26.1893 67.9883ZM46.1132 66.1495L45.0481 67.2147L37.4687 59.6353L38.5338 58.5701C39.1505 57.9535 40.2268 57.9535 40.8435 58.5701L46.1132 63.8398C46.4272 64.1538 46.5953 64.5574 46.5953 64.9947C46.5953 65.4319 46.4272 65.8468 46.1132 66.1495Z" fill="#BFA37C"/>
</g>
<defs>
<clipPath id="clip0_199_1874">
<rect width="74" height="74" fill="white"/>
</clipPath>
</defs>
</svg>
