<svg width="75" height="75" viewBox="0 0 75 75" fill="none" xmlns="http://www.w3.org/2000/svg">
<path d="M70.8434 36.6989L66.6856 36.6959H66.6834C65.8763 36.6959 65.1477 36.9976 64.5767 37.5685C64.0051 38.1398 63.703 38.869 63.7033 39.6773V40.3H63.156L58.4621 32.1698C58.4337 32.1206 58.4023 32.0737 58.3723 32.0257L61.8617 25.982C62.8577 24.2567 62.2645 22.0429 60.5393 21.0469L47.7896 13.6858C46.064 12.6897 43.8503 13.283 42.8545 15.0083L42.467 15.6795L37.5447 12.8375C37.389 12.7476 37.2053 12.7183 37.0294 12.7548L35.8278 13.0047L18.2328 2.84611C18.0277 2.72775 17.778 2.71589 17.5625 2.81403L13.0849 4.85749C12.8007 4.98713 12.6302 5.28273 12.66 5.59357L13.1291 10.493C13.1517 10.7287 13.2869 10.9391 13.492 11.0576L16.6234 12.8655C16.8622 13.0033 17.1581 12.9954 17.3891 12.8451L19.3106 11.5946L19.1886 13.884C19.174 14.1592 19.315 14.4194 19.5538 14.5572L21.0041 15.3945C21.2428 15.5322 21.5388 15.5245 21.7698 15.3742L23.6914 14.1237L23.5694 16.4131C23.5546 16.6883 23.6958 16.9485 23.9346 17.0863L31.0871 21.2158L31.4716 22.3814C31.5279 22.5524 31.6452 22.6964 31.8009 22.7863L36.7232 25.6282L36.3358 26.2993C35.8874 27.0759 35.7471 27.9745 35.933 28.8497C31.5017 28.9014 21.2962 29.1361 18.7509 30.1962C17.8266 30.581 17.0615 31.2635 16.5381 32.1696L11.8443 40.2998H11.2969V39.6771C11.2974 38.8688 10.9955 38.1395 10.4239 37.5683C9.85273 36.9975 9.12427 36.6957 8.31714 36.6957H8.31494L4.15713 36.6988C2.3498 36.7001 0.879395 38.1716 0.879395 39.9789V40.8921C0.879395 42.7007 2.35083 44.1721 4.15947 44.1721H8.45659C8.38423 44.2175 8.31099 44.2625 8.23613 44.307L6.40947 45.3922C4.41084 46.5793 3.2646 48.5933 3.2646 50.918V62.9941C3.2646 64.3011 4.1564 65.4009 5.36255 65.725V68.6321C5.36255 70.6282 6.98647 72.2522 8.98276 72.2522H14.9069C16.903 72.2522 18.5271 70.6282 18.5271 68.6321V65.8246H56.4736V68.6321C56.4736 70.6282 58.0975 72.2522 60.0938 72.2522H66.0179C68.0141 72.2522 69.6381 70.6282 69.6381 68.6321V65.725C70.8443 65.4009 71.7361 64.3011 71.7361 62.9941V50.918C71.7361 48.5933 70.5898 46.5793 68.5912 45.3922L66.7644 44.307C66.6895 44.2625 66.6163 44.2175 66.5439 44.1721H70.8411C72.6497 44.1721 74.1211 42.7007 74.1211 40.8921V39.9789C74.1211 38.1716 72.6507 36.7001 70.8434 36.6988V36.6989ZM44.1232 15.7407C44.5206 15.0524 45.2441 14.6671 45.9871 14.6671C46.3512 14.6671 46.7199 14.7597 47.0574 14.9544L59.8071 22.3155C60.8328 22.9076 61.1855 24.2239 60.5935 25.2496L54.0745 36.5409C53.4824 37.5664 52.1661 37.9192 51.1404 37.3271L38.3907 29.9661C37.8964 29.6809 37.5422 29.2173 37.3933 28.6609C37.2441 28.1046 37.3191 27.5259 37.6045 27.0319L44.1235 15.7405L44.1232 15.7407ZM32.7749 21.6576L32.3904 20.4921C32.3341 20.3211 32.2168 20.1771 32.0611 20.0872L25.0558 16.0426L25.2307 12.7631C25.2455 12.4879 25.1042 12.2277 24.8655 12.0899C24.6267 11.9522 24.3308 11.9599 24.0998 12.1102L21.3472 13.9014L20.6751 13.5134L20.85 10.2339C20.8648 9.95866 20.7236 9.6985 20.4849 9.56066C20.2462 9.42282 19.9502 9.43073 19.7192 9.58102L16.9666 11.3722L14.5512 9.9777L14.1679 5.97341L17.8272 4.30334L35.3372 14.4128C35.4931 14.5029 35.6768 14.5322 35.8525 14.4956L37.0541 14.2457L41.7346 16.948L37.4554 24.3598L32.7749 21.6576ZM17.8064 32.9025C18.1726 32.2682 18.6797 31.8128 19.3139 31.5488C20.9456 30.8692 27.7101 30.3855 36.6002 30.3083C36.8847 30.6796 37.2418 30.9944 37.658 31.2348L50.4077 38.5958C50.9753 38.9235 51.5954 39.079 52.208 39.079C53.4575 39.079 54.6743 38.431 55.3427 37.2733L57.53 33.4849L62.4367 41.9838C62.582 42.2355 62.7353 42.4758 62.896 42.7074H12.1041C12.2647 42.4757 12.4181 42.2353 12.5634 41.9838L17.8064 32.9025ZM2.3438 40.8922V39.979C2.3438 38.9788 3.15752 38.1645 4.15771 38.1638L8.31553 38.1607H8.31685C8.73887 38.1607 9.08926 38.3059 9.38794 38.6044C9.68691 38.9032 9.83208 39.2541 9.83193 39.6767L9.83149 41.0321C9.83149 41.2265 9.90854 41.4128 10.0459 41.5502C10.1833 41.6876 10.3697 41.7648 10.5639 41.7648H10.9751C10.7488 42.1032 10.5046 42.4156 10.2386 42.7073H4.15903C3.15811 42.7073 2.3438 41.893 2.3438 40.8921V40.8922ZM17.0618 68.632C17.0618 69.8204 16.0949 70.7872 14.9064 70.7872H8.98232C7.7939 70.7872 6.82695 69.8204 6.82695 68.632V65.8244H17.0617L17.0618 68.632ZM66.0179 70.7872H60.0938C58.9054 70.7872 57.9384 69.8204 57.9384 68.632V65.8244H68.1733V68.632C68.1733 69.8204 67.2063 70.7872 66.0179 70.7872ZM67.8431 46.6515C69.3862 47.5679 70.2712 49.123 70.2712 50.9179V62.9939C70.2712 63.7468 69.6586 64.3594 68.9056 64.3594H6.09453C5.34145 64.3594 4.72886 63.7468 4.72886 62.9939V50.9179C4.72886 49.123 5.61392 47.5679 7.15698 46.6515L8.98364 45.5664C9.6875 45.1483 10.3038 44.6883 10.849 44.172H64.1511C64.6963 44.6882 65.3126 45.1483 66.0164 45.5664L67.8433 46.6515H67.8431ZM72.6563 40.8921C72.6563 41.893 71.842 42.7073 70.8411 42.7073H64.7617C64.4955 42.4156 64.2515 42.1032 64.0251 41.7648H64.4363C64.6306 41.7648 64.817 41.6876 64.9543 41.5502C65.0915 41.4128 65.1687 41.2265 65.1687 41.0321L65.1683 39.6767C65.1683 39.2539 65.3133 38.9032 65.6123 38.6044C65.911 38.3059 66.2614 38.1607 66.6834 38.1607H66.6847L70.8425 38.1638C71.8427 38.1645 72.6564 38.9787 72.6564 39.979V40.8922L72.6563 40.8921ZM64.8966 49.3571L53.5043 51.1514C52.7394 51.2718 52.1398 51.8113 51.9393 52.5592L51.2129 55.2707C51.0866 55.7415 51.1928 56.2263 51.5042 56.6012C51.79 56.9451 52.1986 57.1363 52.6392 57.1363C52.6786 57.1363 52.7185 57.1348 52.7583 57.1316L65.3461 56.1579C66.3456 56.0806 67.1284 55.2348 67.1284 54.2324V51.2648C67.1284 50.691 66.8882 50.1696 66.4519 49.7967C66.0157 49.4237 65.4629 49.2676 64.8966 49.3571ZM65.1245 50.8041C65.1545 50.7994 65.1831 50.797 65.2106 50.797C65.3183 50.797 65.4101 50.8335 65.5001 50.9103C65.6132 51.007 65.6636 51.1162 65.6636 51.2649V54.2325C65.6636 54.4788 65.4786 54.6786 65.2331 54.6976L52.6452 55.6713L52.631 55.6652C52.631 55.6652 52.6278 55.6501 52.6278 55.6499L53.3543 52.9383C53.4049 52.7494 53.5392 52.6287 53.7324 52.5982L65.1247 50.8039L65.1245 50.8041ZM46.7791 50.2615H28.221C27.6068 50.2615 27.0627 50.5299 26.6888 51.0171C26.3149 51.5043 26.1966 52.0993 26.3555 52.6925L27.6135 57.3878C27.8431 58.244 28.5928 58.8191 29.4791 58.8191H45.5212C46.4075 58.8191 47.1572 58.2439 47.3867 57.3877L48.6447 52.6925C48.8035 52.0994 48.6852 51.5044 48.3115 51.0172C47.9376 50.5299 47.3935 50.2615 46.7792 50.2615H46.7791ZM45.5211 57.3543H29.479C29.2616 57.3543 29.0847 57.2185 29.0283 57.0086L28.5632 55.2727H46.4368L45.9717 57.0086C45.9154 57.2186 45.7385 57.3544 45.5211 57.3544V57.3543ZM47.2297 52.3134L46.8293 53.8079H28.1709L27.7706 52.3134C27.73 52.1618 27.7555 52.0332 27.8511 51.9089C27.9466 51.7843 28.0643 51.7263 28.2211 51.7263H46.7792C46.9361 51.7263 47.0538 51.7843 47.1493 51.9089C47.2448 52.0334 47.2704 52.162 47.2298 52.3134H47.2297ZM23.0606 52.5592C22.8603 51.8113 22.2607 51.2716 21.4956 51.1512L10.1034 49.3569C9.53691 49.2676 8.98423 49.4237 8.548 49.7967C8.11177 50.1695 7.87168 50.6908 7.87168 51.2646V54.2322C7.87168 55.2346 8.65464 56.0804 9.65395 56.1578L22.2416 57.1315C22.2815 57.1345 22.3213 57.1362 22.3607 57.1362C22.8015 57.1362 23.2101 56.945 23.4957 56.601C23.807 56.2263 23.9133 55.7415 23.7872 55.2707L23.0606 52.5592ZM22.3691 55.665L22.3547 55.6712L9.76689 54.6975C9.52153 54.6784 9.33652 54.4785 9.33652 54.2324V51.2648C9.33652 51.1161 9.38691 51.0068 9.49985 50.9103C9.58979 50.8334 9.68164 50.797 9.78931 50.797C9.81685 50.797 9.84556 50.7994 9.87544 50.8041L21.2677 52.5984C21.4609 52.6288 21.5951 52.7495 21.6458 52.9383L22.3723 55.6501L23.0798 55.4605L22.3691 55.665ZM22.987 61.7091C22.987 62.1135 22.659 62.4415 22.2545 62.4415H8.60425C8.1998 62.4415 7.87183 62.1135 7.87183 61.7091C7.87183 61.3047 8.1998 60.9767 8.60425 60.9767H22.2548C22.6593 60.9767 22.9873 61.3047 22.9873 61.7091H22.987ZM67.1283 61.7091C67.1283 62.1135 66.8003 62.4415 66.3958 62.4415H52.7453C52.3408 62.4415 52.0128 62.1135 52.0128 61.7091C52.0128 61.3047 52.3408 60.9767 52.7453 60.9767H66.3958C66.8003 60.9767 67.1283 61.3047 67.1283 61.7091ZM46.1404 61.7091C46.1404 62.1135 45.8124 62.4415 45.408 62.4415H29.5919C29.1875 62.4415 28.8595 62.1135 28.8595 61.7091C28.8595 61.3047 29.1875 60.9767 29.5919 60.9767H45.408C45.8124 60.9767 46.1404 61.3047 46.1404 61.7091ZM47.686 32.3571L50.7465 34.124C50.9842 34.2613 51.2439 34.3265 51.5004 34.3265C52.0237 34.3265 52.5334 34.055 52.8134 33.5702L57.3901 25.6429C57.8072 24.9203 57.5587 23.9932 56.8363 23.5761L53.7758 21.8092C53.4266 21.6077 53.019 21.5544 52.6279 21.659C52.237 21.7637 51.9106 22.0137 51.7089 22.3631L47.1321 30.2904C46.7151 31.0129 46.9635 31.94 47.686 32.3571ZM48.4007 31.0227L52.9774 23.0955C52.9859 23.0807 53.0037 23.0721 53.0209 23.0721C53.0289 23.0721 53.0366 23.0738 53.0434 23.0778L56.1039 24.8447C56.1252 24.857 56.1339 24.8891 56.1216 24.9106L51.5448 32.8378C51.5325 32.8591 51.5003 32.8679 51.4789 32.8555L48.4184 31.0886C48.397 31.0763 48.3884 31.0441 48.4007 31.0227Z" fill="#BFA37C"/>
</svg>
