<svg width="74" height="74" viewBox="0 0 74 74" fill="none" xmlns="http://www.w3.org/2000/svg">
<g clip-path="url(#clip0_199_1864)">
<path d="M69.6582 50.4366H62.0784C62.0784 47.5547 62.5127 43.3001 59.1115 39.0645C57.1984 36.682 54.5017 35.0063 51.5179 34.3455C43.9696 32.6741 35.0441 31.8823 24.9861 31.9912C17.4413 23.0735 4.7294 20.4659 3.56476 21.3943C1.4786 23.0578 -6.19201 46.145 10.8356 63.1725C29.2209 81.5579 60.5423 75.7421 70.9377 51.6859C71.5532 50.4006 70.2818 49.8636 69.6582 50.4366ZM6.46296 54.609C23.2952 54.609 23.5399 54.9757 23.5399 53.7356C23.5399 52.5775 22.4066 52.8621 18.8145 52.8621C19.7786 49.6938 28.9542 49.1609 32.252 49.0779C30.2861 51.5021 29.4295 54.6482 29.9654 57.8031H8.55029C7.79953 56.7785 7.10148 55.7131 6.46296 54.609ZM31.5548 55.9641C31.5548 50.8883 35.6842 46.7589 40.7598 46.7589C45.8356 46.7589 49.965 50.8883 49.965 55.9641C49.965 61.0397 45.8356 65.1691 40.7598 65.1691C35.6842 65.1693 31.5548 61.0397 31.5548 55.9641ZM51.6252 54.609C60.3395 54.609 60.3316 54.4626 60.3316 54.8727C60.3316 56.4885 59.017 57.8029 57.4014 57.8029H51.5547C51.7465 56.6729 51.7542 55.6488 51.6252 54.609ZM60.3312 47.4795C56.8469 47.2377 54.3472 45.7803 51.9974 43.4286H59.6143C60.0771 44.694 60.329 46.0588 60.3312 47.4795ZM4.6518 23.0135C12.1202 23.9003 19.0425 27.8963 23.4345 32.8699C21.1536 35.2794 19.4999 34.7337 7.56166 34.9243C6.41565 34.9425 6.42919 36.6711 7.57534 36.6711L19.1992 36.4858C21.4624 36.4497 23.5526 35.4542 24.9999 33.7388C34.9279 33.6313 43.7209 34.4085 51.1403 36.0512C54.4922 36.7936 57.2168 38.8828 58.8062 41.6818H51.9717C50.4269 41.6818 49.6516 43.554 50.7439 44.6463C53.4643 47.3664 56.3906 48.994 60.3316 49.2331V52.8622H51.2618C49.0694 45.4534 40.125 42.6083 34.0642 47.3066C28.9377 47.3231 17.6832 47.7773 17.0324 52.8622H5.51859C0.733522 43.3936 0.573529 32.4029 4.6518 23.0135ZM9.9151 59.5499H30.4138C33.8192 69.347 47.7006 69.347 51.1061 59.5499H57.4012C59.9803 59.5499 62.0784 57.4516 62.0784 54.8727V52.1837H68.7939C57.7668 75.331 26.4115 79.3403 9.9151 59.5499Z" fill="#BFA37C"/>
<path d="M10.7442 10.9707C9.9298 11.7908 11.1691 13.0217 11.9838 12.2017C34.0458 -10.0148 72.2131 5.71572 72.2131 37.0257C72.2131 39.261 71.7596 40.4978 72.9241 40.5836C73.4018 40.6195 73.8238 40.2601 73.8593 39.7766C76.3688 5.66143 34.904 -13.358 10.7442 10.9707Z" fill="#BFA37C"/>
<path d="M40.7598 62.2513C44.2265 62.2513 47.047 59.4309 47.047 55.9642C47.047 52.4975 44.2265 49.677 40.7598 49.677C37.2931 49.677 34.4727 52.4975 34.4727 55.9642C34.4728 59.4309 37.2931 62.2513 40.7598 62.2513ZM40.7598 51.424C43.2634 51.424 45.3 53.4606 45.3 55.9642C45.3 58.4676 43.2634 60.5044 40.7598 60.5044C38.2564 60.5044 36.2196 58.4677 36.2196 55.9642C36.2198 53.4606 38.2564 51.424 40.7598 51.424Z" fill="#BFA37C"/>
<path d="M9.15156 43.8806C10.3072 43.8806 10.3072 42.1336 9.15156 42.1336C5.20139 42.1336 4.09717 41.8427 4.09717 43.0071C4.09731 44.1716 5.20212 43.8806 9.15156 43.8806Z" fill="#BFA37C"/>
</g>
<defs>
<clipPath id="clip0_199_1864">
<rect width="74" height="74" fill="white"/>
</clipPath>
</defs>
</svg>
